# This file uses centimeters as units for non-parametric coordinates.

mtllib Wall.mtl
g default
v -3.736210 -0.012423 0.722140
v 3.518895 -0.012423 0.722140
v -3.736210 6.884256 0.722140
v 3.518895 4.975181 0.722140
v -3.736210 6.884256 -0.722140
v 3.518895 4.975181 -0.722140
v -3.736210 -0.012423 -0.722140
v 3.518895 -0.012423 -0.722140
v 0.183118 -0.012423 0.722140
v 0.183118 6.679670 0.722140
v 0.183118 6.679670 -0.722140
v 0.183118 -0.012423 -0.722140
v -1.922434 -0.012423 0.722140
v -1.922434 6.884256 0.722140
v -1.922434 6.884256 -0.722140
v -1.922434 -0.012423 -0.722140
v 1.705118 -0.012423 0.722140
v 1.705118 5.480683 0.722140
v 1.705118 5.480683 -0.722140
v 1.705118 -0.012423 -0.722140
v -2.829322 -0.012423 0.722140
v -3.046684 6.884256 0.722140
v -3.046684 6.884256 -0.722140
v -2.829322 -0.012423 -0.722140
v 2.612007 -0.012423 0.722140
v 2.612007 5.395547 0.722140
v 2.612007 5.395547 -0.722140
v 2.612007 -0.012423 -0.722140
v 1.090581 -0.012423 0.722140
v 1.090581 6.347899 0.722140
v 1.090581 6.347899 -0.722140
v 1.090581 -0.012423 -0.722140
v -1.015546 -0.012423 0.722140
v -0.798185 6.884256 0.722140
v -0.798185 6.884256 -0.722140
v -1.015546 -0.012423 -0.722140
v -3.736210 0.677245 0.722140
v -3.736210 0.677245 -0.722140
v -2.829322 0.677245 -0.722140
v -1.922434 0.677245 -0.722140
v -1.015546 0.677245 -0.722140
v 0.183118 0.656786 -0.722140
v 1.090581 0.623609 -0.722140
v 1.705118 0.536887 -0.722140
v 2.612007 0.528374 -0.722140
v 3.518895 0.486337 -0.722140
v 3.518895 0.486337 0.722140
v 2.612006 0.528374 0.722140
v 1.705118 0.536887 0.722140
v 1.090581 0.623609 0.722140
v 0.183118 0.656786 0.722140
v -1.015546 0.677245 0.722140
v -1.922434 0.677245 0.722140
v -2.829322 0.677245 0.722140
v -3.736210 2.539348 -0.722140
v -3.736210 2.539348 0.722140
v -2.829322 2.539348 0.722140
v -1.922434 2.539348 0.722140
v -1.015546 2.539348 0.722140
v 0.183118 2.463651 0.722140
v 1.090581 2.340896 0.722140
v 1.705118 2.020026 0.722140
v 2.612007 1.988526 0.722140
v 4.436249 1.832990 0.722140
v 4.436249 1.832990 -0.722140
v 2.612007 1.988526 -0.722140
v 1.705118 2.020026 -0.722140
v 1.090581 2.340896 -0.722140
v 0.183118 2.463651 -0.722140
v -1.015546 2.539348 -0.722140
v -1.922434 2.539348 -0.722140
v -2.829322 2.539348 -0.722140
v -3.736210 3.842820 -0.722140
v -3.736210 3.842820 0.722140
v -2.829322 3.842820 0.722140
v -1.922434 3.842820 0.722140
v -1.015546 3.842820 0.722140
v 0.183118 3.728457 0.722140
v 1.090581 3.542997 0.722140
v 1.705118 3.058223 0.722140
v 2.612007 3.010632 0.722140
v 3.518895 2.775648 0.722140
v 3.518895 2.775648 -0.722140
v 2.612007 3.010632 -0.722140
v 1.705118 3.058223 -0.722140
v 1.090581 3.542997 -0.722140
v 0.183118 3.728457 -0.722140
v -1.015546 3.842820 -0.722140
v -1.922434 3.842820 -0.722140
v -2.829322 3.842820 -0.722140
v -3.736210 1.422086 0.722140
v -3.736210 1.422086 -0.722140
v -2.829322 1.422086 -0.722140
v -1.922434 1.422086 -0.722140
v -1.015546 1.422086 -0.722140
v 0.183118 1.379532 -0.722140
v 1.090581 1.310524 -0.722140
v 1.705118 1.130143 -0.722140
v 2.612007 1.112435 -0.722140
v 4.436249 1.201612 -0.722140
v 4.436249 1.201612 0.722140
v 2.612007 1.112435 0.722140
v 1.705118 1.130143 0.722140
v 1.090581 1.310524 0.722140
v 0.183118 1.379532 0.722140
v -1.015546 1.422086 0.722140
v -1.922434 1.422086 0.722140
v -2.829322 1.422086 0.722140
v 5.327414 -0.012423 -0.722140
v 5.327414 -0.012423 0.722140
v 5.327414 0.486337 -0.722140
v 5.327414 0.486337 0.722140
v 5.327414 1.024999 -0.722140
v 5.327414 1.024998 0.722140
v -1.922434 7.281896 0.722140
v -1.922434 7.281896 -0.722140
v -1.015546 7.281896 0.722140
v -1.015546 7.281896 -0.722140
v -2.829322 7.281896 0.722140
v -2.829322 7.281896 -0.722140
vt 0.375000 0.000000
vt 0.625000 0.000000
vt 0.375000 0.250000
vt 0.625000 0.250000
vt 0.375000 0.500000
vt 0.625000 0.500000
vt 0.375000 0.750000
vt 0.625000 0.750000
vt 0.375000 1.000000
vt 0.625000 1.000000
vt 0.875000 0.000000
vt 0.875000 0.250000
vt 0.125000 0.000000
vt 0.125000 0.250000
vt 0.500000 0.000000
vt 0.500000 1.000000
vt 0.500000 0.250000
vt 0.500000 0.500000
vt 0.500000 0.750000
vt 0.437500 0.000000
vt 0.437500 1.000000
vt 0.437500 0.250000
vt 0.437500 0.500000
vt 0.437500 0.750000
vt 0.562500 0.000000
vt 0.562500 1.000000
vt 0.562500 0.250000
vt 0.562500 0.500000
vt 0.562500 0.750000
vt 0.406250 0.000000
vt 0.406250 1.000000
vt 0.406250 0.250000
vt 0.406250 0.500000
vt 0.406250 0.750000
vt 0.593750 0.000000
vt 0.593750 1.000000
vt 0.593750 0.250000
vt 0.593750 0.500000
vt 0.593750 0.750000
vt 0.531250 0.000000
vt 0.531250 1.000000
vt 0.531250 0.250000
vt 0.531250 0.500000
vt 0.531250 0.750000
vt 0.468750 0.000000
vt 0.468750 1.000000
vt 0.468750 0.250000
vt 0.468750 0.500000
vt 0.468750 0.750000
vt 0.375000 0.025000
vt 0.125000 0.025000
vt 0.375000 0.725000
vt 0.406250 0.725000
vt 0.437500 0.725000
vt 0.468750 0.725000
vt 0.500000 0.725000
vt 0.531250 0.725000
vt 0.562500 0.725000
vt 0.593750 0.725000
vt 0.625000 0.725000
vt 0.875000 0.025000
vt 0.625000 0.025000
vt 0.593750 0.025000
vt 0.562500 0.025000
vt 0.531250 0.025000
vt 0.500000 0.025000
vt 0.468750 0.025000
vt 0.437500 0.025000
vt 0.406250 0.025000
vt 0.125000 0.092500
vt 0.375000 0.657500
vt 0.375000 0.092500
vt 0.406250 0.092500
vt 0.437500 0.092500
vt 0.468750 0.092500
vt 0.500000 0.092500
vt 0.531250 0.092500
vt 0.562500 0.092500
vt 0.593750 0.092500
vt 0.625000 0.092500
vt 0.625000 0.657500
vt 0.875000 0.092500
vt 0.593750 0.657500
vt 0.562500 0.657500
vt 0.531250 0.657500
vt 0.500000 0.657500
vt 0.468750 0.657500
vt 0.437500 0.657500
vt 0.406250 0.657500
vt 0.125000 0.139750
vt 0.375000 0.610250
vt 0.375000 0.139750
vt 0.406250 0.139750
vt 0.437500 0.139750
vt 0.468750 0.139750
vt 0.500000 0.139750
vt 0.531250 0.139750
vt 0.562500 0.139750
vt 0.593750 0.139750
vt 0.625000 0.139750
vt 0.625000 0.610250
vt 0.875000 0.139750
vt 0.593750 0.610250
vt 0.562500 0.610250
vt 0.531250 0.610250
vt 0.500000 0.610250
vt 0.468750 0.610250
vt 0.437500 0.610250
vt 0.406250 0.610250
vt 0.375000 0.052000
vt 0.125000 0.052000
vt 0.375000 0.698000
vt 0.406250 0.698000
vt 0.437500 0.698000
vt 0.468750 0.698000
vt 0.500000 0.698000
vt 0.531250 0.698000
vt 0.562500 0.698000
vt 0.593750 0.698000
vt 0.625000 0.698000
vt 0.875000 0.052000
vt 0.625000 0.052000
vt 0.593750 0.052000
vt 0.562500 0.052000
vt 0.531250 0.052000
vt 0.500000 0.052000
vt 0.468750 0.052000
vt 0.437500 0.052000
vt 0.406250 0.052000
vt 0.625000 0.000000
vt 0.875000 0.000000
vt 0.875000 0.025000
vt 0.625000 0.025000
vt 0.875000 0.052000
vt 0.625000 0.052000
vt 0.437500 0.250000
vt 0.468750 0.250000
vt 0.468750 0.500000
vt 0.437500 0.500000
vt 0.406250 0.500000
vt 0.406250 0.250000
vn 0.000000 0.000000 1.000000
vn 0.000000 0.000000 1.000000
vn 0.000000 0.000000 1.000000
vn 0.000000 0.000000 1.000000
vn -0.000001 1.000000 0.000000
vn -0.000001 1.000000 0.000000
vn -0.000001 1.000000 0.000000
vn -0.000001 1.000000 0.000000
vn 0.000000 0.000000 -1.000000
vn 0.000000 0.000000 -1.000000
vn 0.000000 0.000000 -1.000000
vn 0.000000 0.000000 -1.000000
vn 0.000000 -1.000000 0.000000
vn 0.000000 -1.000000 0.000000
vn 0.000000 -1.000000 0.000000
vn 0.000000 -1.000000 0.000000
vn 1.000000 0.000000 0.000000
vn 1.000000 0.000000 0.000000
vn 1.000000 0.000000 0.000000
vn 1.000000 0.000000 0.000000
vn -1.000000 0.000000 0.000000
vn -1.000000 0.000000 0.000000
vn -1.000000 0.000000 0.000000
vn -1.000000 0.000000 0.000000
vn 0.000000 0.000000 1.000000
vn 0.000000 0.000000 1.000000
vn 0.000000 0.000000 1.000000
vn 0.000000 0.000000 1.000000
vn 0.273172 0.961965 0.000000
vn 0.273172 0.961965 0.000000
vn 0.618820 0.785533 0.000000
vn 0.618820 0.785533 0.000000
vn 0.000000 0.000000 -1.000000
vn 0.000000 0.000000 -1.000000
vn 0.000000 0.000000 -1.000000
vn 0.000000 0.000000 -1.000000
vn 0.000000 -1.000000 0.000000
vn 0.000000 -1.000000 0.000000
vn 0.000000 -1.000000 0.000000
vn 0.000000 -1.000000 0.000000
vn 0.000000 0.000000 1.000000
vn 0.000000 0.000000 1.000000
vn 0.000000 0.000000 1.000000
vn 0.000000 0.000000 1.000000
vn 0.000000 1.000000 0.000000
vn 0.000000 1.000000 0.000000
vn 0.000000 1.000000 0.000000
vn 0.000000 1.000000 0.000000
vn 0.000000 0.000000 -1.000000
vn 0.000000 0.000000 -1.000000
vn 0.000000 0.000000 -1.000000
vn 0.000000 0.000000 -1.000000
vn 0.000000 -1.000000 0.000000
vn 0.000000 -1.000000 0.000000
vn 0.000000 -1.000000 0.000000
vn 0.000000 -1.000000 0.000000
vn 0.000000 0.000000 1.000000
vn 0.000000 0.000000 1.000000
vn 0.000000 0.000000 1.000000
vn 0.000000 0.000000 1.000000
vn 0.530584 0.847632 0.000000
vn 0.530584 0.847632 0.000000
vn 0.268470 0.963288 0.000000
vn 0.268470 0.963288 0.000000
vn 0.000000 0.000000 -1.000000
vn 0.000000 0.000000 -1.000000
vn 0.000000 0.000000 -1.000000
vn 0.000000 0.000000 -1.000000
vn 0.000000 -1.000000 0.000000
vn 0.000000 -1.000000 0.000000
vn 0.000000 -1.000000 0.000000
vn 0.000000 -1.000000 0.000000
vn 0.000000 1.000000 0.000000
vn 0.000000 1.000000 0.000000
vn 0.000000 0.000000 1.000000
vn 0.000000 0.000000 1.000000
vn 0.420544 0.907272 0.000000
vn 0.420544 0.907272 0.000000
vn 0.000000 0.000000 -1.000000
vn 0.000000 0.000000 -1.000000
vn 0.000000 -1.000000 0.000000
vn 0.000000 -1.000000 0.000000
vn 0.204096 0.978951 0.000000
vn 0.204096 0.978951 0.000000
vn -1.000000 0.000000 0.000000
vn -1.000000 0.000000 0.000000
vn -1.000000 0.000000 0.000000
vn -1.000000 0.000000 0.000000
vn 0.000000 0.000000 -1.000000
vn 0.000000 0.000000 -1.000000
vn 0.000000 0.000000 -1.000000
vn 0.000000 0.000000 -1.000000
vn 0.000000 0.000000 -1.000000
vn 0.000000 0.000000 -1.000000
vn 0.000000 0.000000 -1.000000
vn 0.000000 0.000000 -1.000000
vn 0.000000 0.000000 -1.000000
vn 0.000000 0.000000 -1.000000
vn 0.000000 0.000000 -1.000000
vn 0.000000 0.000000 -1.000000
vn 0.000000 0.000000 -1.000000
vn 0.000000 0.000000 -1.000000
vn 0.000000 0.000000 -1.000000
vn 0.000000 0.000000 -1.000000
vn 0.000000 0.000000 -1.000000
vn 0.000000 0.000000 -1.000000
vn 0.959928 0.280248 0.000000
vn 0.959928 0.280248 0.000000
vn 1.000000 0.000000 0.000000
vn 1.000000 0.000000 0.000000
vn 0.000000 0.000000 1.000000
vn 0.000000 0.000000 1.000000
vn 0.000000 0.000000 1.000000
vn 0.000000 0.000000 1.000000
vn 0.000000 0.000000 1.000000
vn 0.000000 0.000000 1.000000
vn 0.000000 0.000000 1.000000
vn 0.000000 0.000000 1.000000
vn 0.000000 0.000000 1.000000
vn 0.000000 0.000000 1.000000
vn 0.000000 0.000000 1.000000
vn 0.000000 0.000000 1.000000
vn 0.000000 0.000000 1.000000
vn 0.000000 0.000000 1.000000
vn 0.000000 0.000000 1.000000
vn 0.000000 0.000000 1.000000
vn 0.000000 0.000000 1.000000
vn 0.000000 0.000000 1.000000
vn -1.000000 0.000000 0.000000
vn -1.000000 0.000000 0.000000
vn 0.000000 0.000000 1.000000
vn 0.000000 0.000000 1.000000
vn 0.000000 0.000000 1.000000
vn 0.000000 0.000000 1.000000
vn 0.000000 0.000000 1.000000
vn 0.000000 0.000000 1.000000
vn 0.000000 0.000000 1.000000
vn 0.000000 0.000000 1.000000
vn 0.000000 0.000000 1.000000
vn 1.000000 0.000000 0.000000
vn 1.000000 0.000000 0.000000
vn 0.000000 0.000000 -1.000000
vn 0.000000 0.000000 -1.000000
vn 0.000000 0.000000 -1.000000
vn 0.000000 0.000000 -1.000000
vn 0.000000 0.000000 -1.000000
vn 0.000000 0.000000 -1.000000
vn 0.000000 0.000000 -1.000000
vn 0.000000 0.000000 -1.000000
vn 0.000000 0.000000 -1.000000
vn -1.000000 0.000000 0.000000
vn -1.000000 0.000000 0.000000
vn 0.000000 0.000000 1.000000
vn 0.000000 0.000000 1.000000
vn 0.000000 0.000000 1.000000
vn 0.000000 0.000000 1.000000
vn 0.000000 0.000000 1.000000
vn 0.000000 0.000000 1.000000
vn 0.000000 0.000000 1.000000
vn 0.000000 0.000000 1.000000
vn 0.000000 0.000000 1.000000
vn 0.863978 0.503530 0.000000
vn 0.863978 0.503530 0.000000
vn 0.000000 0.000000 -1.000000
vn 0.000000 0.000000 -1.000000
vn 0.000000 0.000000 -1.000000
vn 0.000000 0.000000 -1.000000
vn 0.000000 0.000000 -1.000000
vn 0.000000 0.000000 -1.000000
vn 0.000000 0.000000 -1.000000
vn 0.000000 0.000000 -1.000000
vn 0.000000 0.000000 -1.000000
vn 1.000000 0.000000 0.000000
vn 1.000000 0.000000 0.000000
vn 0.000000 -1.000000 0.000000
vn 0.000000 -1.000000 0.000000
vn 0.000000 0.000000 -1.000000
vn 0.000000 0.000000 -1.000000
vn 0.000000 0.000000 1.000000
vn 0.000000 0.000000 1.000000
vn 0.000000 0.000000 -1.000000
vn 0.194402 0.980922 0.000000
vn 0.194402 0.980922 0.000000
vn 0.194402 0.980922 0.000000
vn 0.194402 0.980922 0.000000
vn 0.000000 0.000000 1.000000
vn 0.000000 0.000000 1.000000
vn 0.000000 0.000000 1.000000
vn 0.877462 0.479646 0.000000
vn 0.877462 0.479646 0.000000
vn 0.877462 0.479646 0.000000
vn 0.877462 0.479646 0.000000
vn 0.000000 0.000000 -1.000000
vn 0.000000 0.000000 -1.000000
vn -0.877462 0.479646 0.000000
vn -0.877462 0.479646 0.000000
vn -0.877462 0.479646 0.000000
vn -0.877462 0.479646 0.000000
vn 0.000000 0.000000 1.000000
vn 0.000000 0.000000 -1.000000
s 1
g pCube1
usemtl initialShadingGroup
f 1/1/1 21/30/2 54/69/3 37/50/4
s off
f 3/3/5 22/32/6 23/33/7 5/5/8
s 2
f 38/52/9 39/53/10 24/34/11 7/7/12
s 3
f 7/7/13 24/34/14 21/31/15 1/9/16
s 4
f 110/130/17 109/131/18 111/132/19 112/133/20
s 5
f 7/13/21 1/1/22 37/50/23 38/51/24
s 1
f 50/65/25 51/66/26 9/15/27 29/40/28
s 7
f 11/18/29 10/17/30 30/42/31 31/43/32
s 2
f 12/19/33 42/56/34 43/57/35 32/44/36
s 3
f 9/16/37 12/19/38 32/44/39 29/41/40
s 1
f 52/67/41 53/68/42 13/20/43 33/45/44
s 11
f 116/139/45 115/136/46 117/137/47 118/138/48
s 2
f 16/24/49 40/54/50 41/55/51 36/49/52
s 3
f 13/21/53 16/24/54 36/49/55 33/46/56
s 1
f 48/63/57 49/64/58 17/25/59 25/35/60
s 7
f 19/28/61 18/27/62 26/37/63 27/38/64
s 2
f 20/29/65 44/58/66 45/59/67 28/39/68
s 3
f 17/26/69 20/29/70 28/39/71 25/36/72
s 1
f 53/68/42 54/69/3 21/30/2 13/20/43
s 11
f 120/140/73 119/141/74 115/136/46 116/139/45
s 2
f 24/34/11 39/53/10 40/54/50 16/24/49
s 3
f 21/31/15 24/34/14 16/24/54 13/21/53
s 1
f 47/62/75 48/63/57 25/35/60 2/2/76
s 7
f 27/38/64 26/37/63 4/4/77 6/6/78
s 2
f 28/39/68 45/59/67 46/60/79 8/8/80
s 3
f 25/36/72 28/39/71 8/8/81 2/10/82
s 1
f 49/64/58 50/65/25 29/40/28 17/25/59
s 7
f 31/43/32 30/42/31 18/27/62 19/28/61
s 2
f 32/44/36 43/57/35 44/58/66 20/29/65
s 3
f 29/41/40 32/44/39 20/29/70 17/26/69
s 1
f 51/66/26 52/67/41 33/45/44 9/15/27
s 7
f 35/48/83 34/47/84 10/17/30 11/18/29
s 2
f 36/49/52 41/55/51 42/56/34 12/19/33
s 3
f 33/46/56 36/49/55 12/19/38 9/16/37
s 5
f 73/90/85 74/92/86 3/3/87 5/14/88
s 2
f 5/5/89 23/33/90 90/109/91 73/91/92
f 89/108/93 90/109/91 23/33/90 15/23/94
f 88/107/95 89/108/93 15/23/94 35/48/96
f 87/106/97 88/107/95 35/48/96 11/18/98
f 86/105/99 87/106/97 11/18/98 31/43/100
f 85/104/101 86/105/99 31/43/100 19/28/102
f 84/103/103 85/104/101 19/28/102 27/38/104
f 83/101/105 84/103/103 27/38/104 6/6/106
s 15
f 82/100/107 83/102/108 6/12/109 4/4/110
s 1
f 26/37/111 81/99/112 82/100/113 4/4/114
f 18/27/115 80/98/116 81/99/112 26/37/111
f 30/42/117 79/97/118 80/98/116 18/27/115
f 10/17/119 78/96/120 79/97/118 30/42/117
f 34/47/121 77/95/122 78/96/120 10/17/119
f 14/22/123 76/94/124 77/95/122 34/47/121
f 22/32/125 75/93/126 76/94/124 14/22/123
f 74/92/127 75/93/126 22/32/125 3/3/128
s 5
f 38/51/24 37/50/23 91/110/129 92/111/130
s 1
f 37/50/4 54/69/3 108/129/131 91/110/132
f 107/128/133 108/129/131 54/69/3 53/68/42
f 106/127/134 107/128/133 53/68/42 52/67/41
f 105/126/135 106/127/134 52/67/41 51/66/26
f 104/125/136 105/126/135 51/66/26 50/65/25
f 103/124/137 104/125/136 50/65/25 49/64/58
f 102/123/138 103/124/137 49/64/58 48/63/57
f 101/122/139 102/123/138 48/63/57 47/62/75
s 4
f 112/133/20 111/132/19 113/134/140 114/135/141
s 2
f 46/60/79 45/59/67 99/119/142 100/120/143
f 45/59/67 44/58/66 98/118/144 99/119/142
f 44/58/66 43/57/35 97/117/145 98/118/144
f 43/57/35 42/56/34 96/116/146 97/117/145
f 42/56/34 41/55/51 95/115/147 96/116/146
f 41/55/51 40/54/50 94/114/148 95/115/147
f 40/54/50 39/53/10 93/113/149 94/114/148
f 92/112/150 93/113/149 39/53/10 38/52/9
s 5
f 55/70/151 56/72/152 74/92/86 73/90/85
s 1
f 56/72/153 57/73/154 75/93/126 74/92/127
f 76/94/124 75/93/126 57/73/154 58/74/155
f 77/95/122 76/94/124 58/74/155 59/75/156
f 78/96/120 77/95/122 59/75/156 60/76/157
f 79/97/118 78/96/120 60/76/157 61/77/158
f 80/98/116 79/97/118 61/77/158 62/78/159
f 81/99/112 80/98/116 62/78/159 63/79/160
f 82/100/113 81/99/112 63/79/160 64/80/161
s 15
f 64/80/162 65/82/163 83/102/108 82/100/107
s 2
f 65/81/164 66/83/165 84/103/103 83/101/105
f 66/83/165 67/84/166 85/104/101 84/103/103
f 67/84/166 68/85/167 86/105/99 85/104/101
f 68/85/167 69/86/168 87/106/97 86/105/99
f 69/86/168 70/87/169 88/107/95 87/106/97
f 70/87/169 71/88/170 89/108/93 88/107/95
f 71/88/170 72/89/171 90/109/91 89/108/93
f 73/91/92 90/109/91 72/89/171 55/71/172
s 5
f 92/111/130 91/110/129 56/72/152 55/70/151
s 2
f 55/71/172 72/89/171 93/113/149 92/112/150
f 94/114/148 93/113/149 72/89/171 71/88/170
f 95/115/147 94/114/148 71/88/170 70/87/169
f 96/116/146 95/115/147 70/87/169 69/86/168
f 97/117/145 96/116/146 69/86/168 68/85/167
f 98/118/144 97/117/145 68/85/167 67/84/166
f 99/119/142 98/118/144 67/84/166 66/83/165
f 100/120/143 99/119/142 66/83/165 65/81/164
s 15
f 101/122/173 100/121/174 65/82/163 64/80/162
s 1
f 64/80/161 63/79/160 102/123/138 101/122/139
f 63/79/160 62/78/159 103/124/137 102/123/138
f 62/78/159 61/77/158 104/125/136 103/124/137
f 61/77/158 60/76/157 105/126/135 104/125/136
f 60/76/157 59/75/156 106/127/134 105/126/135
f 59/75/156 58/74/155 107/128/133 106/127/134
f 58/74/155 57/73/154 108/129/131 107/128/133
f 91/110/132 108/129/131 57/73/154 56/72/153
s 3
f 2/2/82 8/11/81 109/131/175 110/130/176
s 2
f 8/11/80 46/61/79 111/132/177 109/131/178
s 1
f 47/62/75 2/2/76 110/130/179 112/133/180
s 2
f 46/61/79 100/121/143 113/134/181 111/132/177
s off
f 100/121/182 101/122/183 114/135/184 113/134/185
s 1
f 101/122/139 47/62/75 112/133/180 114/135/186
f 14/22/123 34/47/121 117/137/187 115/136/188
s off
f 34/47/189 35/48/190 118/138/191 117/137/192
s 2
f 35/48/96 15/23/94 116/139/193 118/138/194
s off
f 23/33/195 22/32/196 119/141/197 120/140/198
s 1
f 22/32/125 14/22/123 115/136/188 119/141/199
s 2
f 15/23/94 23/33/90 120/140/200 116/139/193
